<svg width="19" height="12" viewBox="0 0 19 12" fill="none" xmlns="http://www.w3.org/2000/svg">
<path d="M0.269779 6.36553L5.742 11.3155C5.82704 11.3925 5.92799 11.4535 6.0391 11.4951C6.1502 11.5367 6.26929 11.5582 6.38955 11.5582C6.50981 11.5582 6.62889 11.5367 6.74 11.4951C6.8511 11.4535 6.95206 11.3925 7.03709 11.3155C7.12213 11.2386 7.18959 11.1473 7.23561 11.0468C7.28163 10.9463 7.30532 10.8386 7.30532 10.7298C7.30532 10.621 7.28163 10.5133 7.23561 10.4128C7.18959 10.3123 7.12213 10.221 7.03709 10.144L3.11533 6.60478L17.334 6.60478C17.5759 6.60478 17.8079 6.51786 17.9789 6.36315C18.1499 6.20843 18.246 5.99859 18.246 5.77978C18.246 5.56098 18.1499 5.35114 17.9789 5.19642C17.8079 5.0417 17.5759 4.95478 17.334 4.95478L3.11533 4.95478L7.03709 1.41553C7.12258 1.33884 7.19043 1.24759 7.23673 1.14706C7.28303 1.04653 7.30687 0.938693 7.30687 0.829784C7.30687 0.720874 7.28303 0.613042 7.23673 0.512508C7.19043 0.411974 7.12258 0.320728 7.03709 0.244034C6.95231 0.166708 6.85144 0.105333 6.7403 0.0634484C6.62916 0.0215643 6.50995 5.43118e-08 6.38955 5.33073e-08C6.26915 5.23028e-08 6.14994 0.0215643 6.0388 0.0634484C5.92766 0.105333 5.82679 0.166708 5.742 0.244034L0.269779 5.19403C0.184295 5.27073 0.116445 5.36197 0.070142 5.46251C0.0238391 5.56304 5.23027e-08 5.67087 5.33072e-08 5.77978C5.43117e-08 5.88869 0.0238391 5.99652 0.070142 6.09706C0.116445 6.19759 0.184295 6.28884 0.269779 6.36553Z" fill="#0C0C0C"/>
</svg>
