<svg width="19" height="12" viewBox="0 0 19 12" fill="none" xmlns="http://www.w3.org/2000/svg">
<path d="M18.7302 5.63447L13.258 0.68447C13.173 0.607547 13.072 0.546529 12.9609 0.5049C12.8498 0.46327 12.7307 0.441844 12.6105 0.441844C12.4902 0.441844 12.3711 0.46327 12.26 0.5049C12.1489 0.546529 12.0479 0.607547 11.9629 0.68447C11.8779 0.761391 11.8104 0.85271 11.7644 0.953213C11.7184 1.05372 11.6947 1.16143 11.6947 1.27022C11.6947 1.379 11.7184 1.48672 11.7644 1.58722C11.8104 1.68773 11.8779 1.77905 11.9629 1.85597L15.8847 5.39522L1.66601 5.39522C1.42412 5.39522 1.19214 5.48214 1.0211 5.63686C0.850057 5.79157 0.753969 6.00142 0.753969 6.22022C0.753969 6.43902 0.850057 6.64886 1.0211 6.80358C1.19214 6.9583 1.42412 7.04522 1.66601 7.04522L15.8847 7.04522L11.9629 10.5845C11.8774 10.6612 11.8096 10.7524 11.7633 10.8529C11.717 10.9535 11.6931 11.0613 11.6931 11.1702C11.6931 11.2791 11.717 11.387 11.7633 11.4875C11.8096 11.588 11.8774 11.6793 11.9629 11.756C12.0477 11.8333 12.1486 11.8947 12.2597 11.9366C12.3708 11.9784 12.4901 12 12.6105 12C12.7309 12 12.8501 11.9784 12.9612 11.9366C13.0723 11.8947 13.1732 11.8333 13.258 11.756L18.7302 6.80597C18.8157 6.72927 18.8836 6.63803 18.9299 6.53749C18.9762 6.43696 19 6.32913 19 6.22022C19 6.11131 18.9762 6.00348 18.9299 5.90294C18.8836 5.80241 18.8157 5.71116 18.7302 5.63447Z" fill="#0C0C0C"/>
</svg>
