<svg width="19" height="12" viewBox="0 0 19 12" fill="none" xmlns="http://www.w3.org/2000/svg">
<path d="M18.0427 5.59699L12.5705 0.655812C12.4855 0.579028 12.3845 0.518117 12.2734 0.476562C12.1623 0.435007 12.0432 0.413619 11.923 0.413619C11.8027 0.413619 11.6836 0.435007 11.5725 0.476562C11.4614 0.518117 11.3604 0.579028 11.2754 0.655812C11.1904 0.732597 11.1229 0.823753 11.0769 0.924077C11.0309 1.0244 11.0072 1.13193 11.0072 1.24052C11.0072 1.34911 11.0309 1.45663 11.0769 1.55696C11.1229 1.65728 11.1904 1.74844 11.2754 1.82522L15.1972 5.35816L0.978505 5.35816C0.736617 5.35816 0.504638 5.44493 0.333597 5.59937C0.162557 5.75381 0.0664686 5.96328 0.0664686 6.18169C0.0664687 6.40011 0.162557 6.60957 0.333597 6.76402C0.504638 6.91846 0.736618 7.00522 0.978506 7.00522L15.1972 7.00522L11.2754 10.5382C11.1899 10.6147 11.1221 10.7058 11.0758 10.8062C11.0295 10.9065 11.0056 11.0142 11.0056 11.1229C11.0056 11.2316 11.0295 11.3392 11.0758 11.4396C11.1221 11.5399 11.1899 11.631 11.2754 11.7076C11.3602 11.7848 11.4611 11.846 11.5722 11.8878C11.6833 11.9296 11.8026 11.9512 11.923 11.9512C12.0434 11.9512 12.1626 11.9296 12.2737 11.8878C12.3848 11.846 12.4857 11.7848 12.5705 11.7076L18.0427 6.7664C18.1282 6.68984 18.1961 6.59876 18.2424 6.4984C18.2887 6.39805 18.3125 6.29041 18.3125 6.18169C18.3125 6.07298 18.2887 5.96534 18.2424 5.86498C18.1961 5.76463 18.1282 5.67354 18.0427 5.59699Z" fill="#FFFAF3"/>
</svg>
