<svg width="12" height="19" viewBox="0 0 12 19" fill="none" xmlns="http://www.w3.org/2000/svg">
<path d="M5.63447 0.26978L0.68447 5.742C0.607548 5.82704 0.54653 5.92799 0.5049 6.0391C0.46327 6.15021 0.441844 6.26929 0.441844 6.38955C0.441844 6.50981 0.46327 6.62889 0.5049 6.74C0.54653 6.85111 0.607548 6.95206 0.68447 7.0371C0.761392 7.12213 0.852711 7.18959 0.953214 7.23561C1.05372 7.28163 1.16144 7.30532 1.27022 7.30532C1.379 7.30532 1.48672 7.28163 1.58722 7.23561C1.68773 7.18959 1.77905 7.12213 1.85597 7.0371L5.39522 3.11534L5.39522 17.334C5.39522 17.5759 5.48214 17.8079 5.63686 17.9789C5.79157 18.1499 6.00142 18.246 6.22022 18.246C6.43902 18.246 6.64887 18.1499 6.80358 17.9789C6.9583 17.8079 7.04522 17.5759 7.04522 17.334L7.04522 3.11534L10.5845 7.03709C10.6612 7.12258 10.7524 7.19043 10.8529 7.23673C10.9535 7.28303 11.0613 7.30687 11.1702 7.30687C11.2791 7.30687 11.387 7.28303 11.4875 7.23673C11.588 7.19043 11.6793 7.12258 11.756 7.03709C11.8333 6.95231 11.8947 6.85144 11.9366 6.7403C11.9784 6.62916 12 6.50995 12 6.38955C12 6.26915 11.9784 6.14994 11.9366 6.0388C11.8947 5.92766 11.8333 5.82679 11.756 5.742L6.80597 0.26978C6.72927 0.184296 6.63803 0.116446 6.53749 0.0701427C6.43696 0.0238398 6.32913 7.95948e-07 6.22022 8.11234e-07C6.11131 8.2652e-07 6.00348 0.0238399 5.90294 0.0701428C5.80241 0.116446 5.71116 0.184296 5.63447 0.26978Z" fill="#0C0C0C"/>
</svg>
